<svg xmlns="http://www.w3.org/2000/svg" width="256" height="256" viewBox="0 0 100 100"><rect width="100" height="100" rx="20" fill="#53d590"></rect><path d="M31.11 34.91L31.11 34.91Q31.11 35.13 31.00 35.41Q30.89 35.68 30.61 35.68L30.61 35.68Q30.51 35.68 30.43 35.58Q30.34 35.48 30.26 35.36Q30.19 35.23 30.10 35.13Q30.02 35.03 29.92 35.01L29.92 35.01Q29.94 35.48 29.92 35.73Q29.89 35.98 29.84 36.09Q29.79 36.20 29.70 36.22Q29.62 36.23 29.52 36.23L29.52 36.23Q29.32 36.23 29.14 36.25Q28.97 36.28 28.80 36.33L28.80 36.33Q28.22 36.45 27.94 36.49Q27.65 36.53 27.53 36.65Q27.40 36.78 27.38 37.05Q27.35 37.32 27.30 37.92L27.30 37.92Q27.25 38.37 27.23 38.81Q27.20 39.24 27.20 39.69L27.20 39.69Q27.20 40.89 27.31 42.03Q27.43 43.18 27.43 44.37L27.43 44.37Q27.43 44.94 27.34 45.49Q27.25 46.04 27.25 46.61L27.25 46.61Q27.25 47.11 27.46 47.60Q27.68 48.08 27.68 48.51L27.68 48.51Q27.68 48.63 27.59 48.74Q27.50 48.85 27.39 48.98Q27.28 49.10 27.19 49.25Q27.10 49.40 27.10 49.60L27.10 49.60Q27.10 50.12 27.29 50.61Q27.48 51.10 27.48 51.62L27.48 51.62Q27.48 52.42 27.38 53.21Q27.28 54.01 27.16 54.81Q27.05 55.60 26.95 56.40Q26.85 57.20 26.85 57.99L26.85 57.99Q26.85 58.64 26.94 59.23Q27.03 59.81 27.25 60.38L27.25 60.38Q27.30 60.51 27.35 60.66Q27.40 60.81 27.40 60.93L27.40 60.93Q27.40 61.26 27.24 61.47Q27.08 61.68 27.08 61.83L27.08 61.83Q27.08 61.95 27.24 62.13Q27.40 62.30 27.45 62.45L27.45 62.45Q27.63 63.02 27.72 63.71Q27.82 64.39 27.82 64.99L27.82 64.99Q27.82 65.51 27.55 66.01Q27.28 66.51 26.83 66.90Q26.38 67.28 25.82 67.53Q25.26 67.78 24.69 67.78L24.69 67.78Q23.91 67.78 23.38 67.31Q22.84 66.83 22.46 66.15Q22.07 65.46 21.76 64.72Q21.45 63.97 21.15 63.42L21.15 63.42Q20.90 62.97 20.76 62.56Q20.63 62.15 20.48 61.75Q20.33 61.36 20.10 60.97Q19.88 60.58 19.48 60.21L19.48 60.21Q19.16 59.91 18.98 59.50Q18.81 59.09 18.70 58.63Q18.59 58.17 18.50 57.71Q18.41 57.25 18.31 56.85L18.31 56.85Q18.04 55.88 17.66 54.93Q17.29 53.98 16.94 53.04L16.94 53.04Q16.82 52.74 16.63 52.37Q16.44 51.99 16.24 51.62Q16.05 51.25 15.88 50.90Q15.72 50.55 15.70 50.25L15.70 50.25Q15.60 49.43 15.27 48.77Q14.95 48.11 14.58 47.51Q14.20 46.91 13.85 46.29Q13.51 45.67 13.38 44.90L13.38 44.90Q13.33 44.65 13.21 44.24Q13.08 43.82 12.88 43.41Q12.68 43.00 12.41 42.70Q12.14 42.40 11.84 42.40L11.84 42.40Q11.56 42.40 11.40 42.67Q11.24 42.93 11.14 43.29Q11.04 43.65 11.00 44.01Q10.97 44.37 10.97 44.55L10.97 44.55Q10.97 45.04 11.03 45.54Q11.09 46.04 11.09 46.54L11.09 46.54Q11.09 46.91 10.94 47.26Q10.79 47.61 10.79 47.96L10.79 47.96Q10.79 48.18 10.95 48.33Q11.11 48.48 11.11 48.68L11.11 48.68Q11.11 48.88 11.07 49.07Q11.02 49.25 11.02 49.45L11.02 49.45Q11.02 50.07 11.08 50.67Q11.14 51.27 11.14 51.87L11.14 51.87Q11.14 52.29 11.09 52.73Q11.04 53.16 10.89 53.54Q10.74 53.91 10.44 54.17Q10.14 54.43 9.67 54.51L9.67 54.51Q9.77 54.71 9.93 54.77Q10.09 54.83 10.27 54.86Q10.44 54.88 10.57 54.93Q10.69 54.98 10.69 55.20L10.69 55.20Q10.69 55.33 10.68 55.42Q10.67 55.50 10.67 55.60L10.67 55.60Q10.67 55.88 10.78 56.05Q10.89 56.23 11.04 56.39Q11.19 56.55 11.30 56.71Q11.41 56.87 11.41 57.12L11.41 57.12Q11.41 57.42 11.34 57.69Q11.26 57.97 11.26 58.24L11.26 58.24Q11.26 58.84 11.41 59.40Q11.56 59.96 11.56 60.56L11.56 60.56Q11.56 60.88 11.50 61.02Q11.44 61.16 11.35 61.23Q11.26 61.31 11.20 61.34Q11.14 61.38 11.14 61.53L11.14 61.53Q11.14 61.78 11.21 61.99Q11.29 62.20 11.29 62.45L11.29 62.45Q11.29 62.60 11.25 62.75Q11.21 62.90 11.09 63.02L11.09 63.02Q11.11 63.32 11.29 63.45Q11.46 63.57 11.70 63.67Q11.94 63.77 12.16 63.88Q12.39 64.00 12.51 64.27L12.51 64.27Q12.61 64.49 12.72 64.68Q12.83 64.87 13.11 64.87L13.11 64.87Q13.53 64.87 13.88 64.68Q14.23 64.49 14.63 64.49L14.63 64.49Q15.27 64.49 15.52 65.00Q15.77 65.51 15.77 66.06L15.77 66.06Q15.77 66.76 15.54 67.05Q15.30 67.33 15.01 67.47Q14.73 67.61 14.49 67.73Q14.25 67.85 14.25 68.20L14.25 68.20Q14.25 68.25 14.27 68.28Q14.28 68.30 14.28 68.35L14.28 68.35Q13.93 68.13 13.54 68.03Q13.16 67.93 12.73 67.93L12.73 67.93Q11.99 67.93 11.25 68.14Q10.52 68.35 9.77 68.35L9.77 68.35Q9.22 68.35 8.70 68.25Q8.18 68.15 7.63 68.15L7.63 68.15Q7.28 68.15 6.94 68.24Q6.61 68.33 6.26 68.33L6.26 68.33Q5.91 68.33 5.34 68.17Q4.76 68.00 4.22 67.74Q3.67 67.48 3.28 67.17Q2.90 66.86 2.90 66.58L2.90 66.58Q2.90 65.84 3.40 65.23Q3.89 64.62 4.64 64.49L4.64 64.49Q5.01 64.42 5.47 64.42Q5.94 64.42 6.38 64.38Q6.83 64.34 7.23 64.21Q7.63 64.07 7.90 63.72L7.90 63.72Q7.80 63.35 7.80 62.87L7.80 62.87Q7.80 62.00 8.03 61.18Q8.25 60.36 8.25 59.49L8.25 59.49Q8.25 59.14 8.18 58.77L8.18 58.77Q7.88 57.05 7.88 55.30L7.88 55.30Q7.88 54.81 7.90 54.30Q7.93 53.79 7.93 53.29L7.93 53.29Q7.93 51.99 7.74 50.72Q7.55 49.45 7.50 48.16L7.50 48.16Q7.45 46.79 7.45 45.46Q7.45 44.12 7.18 42.78L7.18 42.78Q7.11 42.43 7.09 42.11Q7.08 41.78 7.08 41.43L7.08 41.43L7.08 40.54Q7.08 39.49 6.98 38.97Q6.88 38.45 6.63 38.21Q6.38 37.97 6.00 37.91Q5.61 37.85 5.04 37.77L5.04 37.77Q4.72 37.72 4.38 37.45Q4.04 37.18 3.76 36.80Q3.47 36.43 3.28 36.03Q3.10 35.63 3.10 35.31L3.10 35.31L3.10 34.76Q3.10 33.76 3.40 33.23Q3.69 32.69 4.22 32.43Q4.74 32.17 5.45 32.12Q6.16 32.07 6.98 32.07L6.98 32.07Q7.80 32.07 8.69 32.13Q9.57 32.19 10.39 32.41Q11.21 32.62 11.89 33.03Q12.56 33.44 12.98 34.14L12.98 34.14Q13.26 34.61 13.46 35.12Q13.66 35.63 13.83 36.15Q14.00 36.68 14.18 37.19Q14.35 37.70 14.63 38.17L14.63 38.17Q14.75 38.40 14.81 38.66Q14.88 38.92 14.94 39.18Q15.00 39.44 15.07 39.68Q15.15 39.91 15.30 40.14L15.30 40.14Q15.47 40.34 15.71 40.55Q15.95 40.76 16.07 41.01L16.07 41.01Q16.29 41.51 16.38 42.04Q16.47 42.58 16.54 43.11Q16.62 43.65 16.71 44.19Q16.79 44.72 17.02 45.22L17.02 45.22Q17.17 45.52 17.30 45.72Q17.44 45.92 17.55 46.10Q17.66 46.29 17.75 46.53Q17.84 46.76 17.89 47.14L17.89 47.14Q17.94 47.68 17.99 48.22Q18.04 48.75 18.24 49.28L18.24 49.28Q18.39 49.65 18.64 49.98Q18.88 50.30 19.15 50.61Q19.41 50.92 19.66 51.25Q19.91 51.57 20.03 51.97L20.03 51.97Q20.28 52.71 20.50 53.36Q20.73 54.01 21.37 54.51L21.37 54.51Q21.23 54.73 21.11 54.99Q21.00 55.25 21.00 55.53L21.00 55.53Q21.00 56.05 21.26 56.56Q21.52 57.07 21.72 57.55L21.72 57.55Q21.87 57.92 22.03 58.19Q22.20 58.47 22.59 58.67L22.59 58.67Q22.94 58.84 23.07 58.98Q23.19 59.11 23.22 59.28Q23.24 59.44 23.23 59.65Q23.22 59.86 23.29 60.19L23.29 60.19Q23.32 60.33 23.39 60.55Q23.47 60.76 23.58 60.97Q23.69 61.18 23.84 61.33Q23.99 61.48 24.16 61.48L24.16 61.48Q24.31 61.48 24.39 61.37Q24.46 61.26 24.51 61.11Q24.56 60.96 24.57 60.80Q24.59 60.63 24.59 60.53L24.59 60.53Q24.59 60.19 24.77 59.90Q24.96 59.61 24.96 59.24L24.96 59.24Q24.96 58.82 24.77 58.47Q24.59 58.12 24.59 57.69L24.59 57.69Q24.59 57.35 24.72 57.06Q24.86 56.77 24.86 56.42L24.86 56.42Q24.86 56.18 24.67 56.00Q24.49 55.83 24.49 55.65L24.49 55.65Q24.49 55.58 24.56 55.57Q24.64 55.55 24.71 55.53Q24.79 55.50 24.86 55.44Q24.94 55.38 24.94 55.20L24.94 55.20Q24.94 54.61 24.80 54.05Q24.66 53.49 24.49 52.91Q24.31 52.34 24.18 51.76Q24.04 51.17 24.04 50.57L24.04 50.57Q24.04 49.98 24.29 49.53Q24.54 49.08 24.54 48.93L24.54 48.93Q24.54 48.61 24.38 48.34Q24.21 48.08 24.21 47.76L24.21 47.76Q24.21 47.39 24.40 47.05Q24.59 46.71 24.59 46.34L24.59 46.34Q24.59 46.12 24.49 45.90Q24.39 45.69 24.26 45.47Q24.14 45.24 24.03 45.01Q23.91 44.77 23.86 44.55L23.86 44.55Q23.79 44.17 23.78 43.77Q23.77 43.38 23.77 42.98L23.77 42.98L23.77 41.91Q23.77 41.23 23.70 40.60Q23.64 39.96 23.47 39.32L23.47 39.32Q23.32 38.72 23.29 38.22Q23.27 37.72 23.14 37.35Q23.02 36.98 22.67 36.74Q22.32 36.50 21.52 36.45L21.52 36.45Q20.95 36.40 20.38 36.39Q19.81 36.38 19.23 36.23L19.23 36.23Q18.86 36.13 18.67 35.81Q18.49 35.48 18.41 35.08Q18.34 34.69 18.34 34.27Q18.34 33.86 18.34 33.61L18.34 33.61Q18.34 33.14 18.80 32.83Q19.26 32.52 19.89 32.32Q20.53 32.12 21.18 32.03Q21.82 31.95 22.17 31.95L22.17 31.95Q22.40 31.95 22.97 31.97Q23.54 32.00 24.24 32.07Q24.94 32.15 25.68 32.26Q26.43 32.37 27.05 32.56Q27.68 32.74 28.07 32.99Q28.47 33.24 28.47 33.56L28.47 33.56Q28.70 33.32 28.97 33.14Q29.24 32.97 29.59 32.97L29.59 32.97Q29.92 32.97 30.20 33.15Q30.49 33.34 30.69 33.64Q30.89 33.94 31.00 34.27Q31.11 34.61 31.11 34.91ZM7.58 65.94L7.58 65.94Q7.58 65.71 7.45 65.60Q7.33 65.49 7.14 65.44Q6.96 65.39 6.77 65.33Q6.58 65.27 6.48 65.14L6.48 65.14Q6.46 65.22 6.45 65.28Q6.43 65.34 6.43 65.41L6.43 65.41Q6.43 65.64 6.56 65.75Q6.68 65.86 6.87 65.91Q7.06 65.96 7.23 66.02Q7.40 66.09 7.53 66.21L7.53 66.21Q7.55 66.14 7.57 66.07Q7.58 66.01 7.58 65.94ZM64.63 63.70L64.63 63.70Q64.63 63.92 64.61 64.29Q64.58 64.67 64.36 64.79L64.36 64.79Q64.11 64.92 64.04 65.22Q63.98 65.51 63.98 65.81Q63.98 66.11 63.96 66.35Q63.93 66.58 63.76 66.58L63.76 66.58Q63.63 66.58 63.56 66.52Q63.48 66.46 63.36 66.46L63.36 66.46Q63.24 66.46 63.11 66.58Q62.99 66.71 62.99 66.83L62.99 66.83Q62.99 66.96 63.07 67.02Q63.16 67.08 63.16 67.21L63.16 67.21Q63.16 67.31 62.79 67.44Q62.41 67.58 61.94 67.72Q61.47 67.85 61.02 67.94Q60.57 68.03 60.42 68.03L60.42 68.03Q59.53 68.03 58.63 67.71Q57.73 67.38 56.89 67.11L56.89 67.11Q55.86 66.76 55.38 65.96Q54.89 65.17 54.67 64.17Q54.45 63.17 54.33 62.13Q54.22 61.08 53.92 60.26L53.92 60.26Q53.80 59.89 53.80 59.64L53.80 59.64Q53.80 59.39 53.86 59.23Q53.92 59.06 54.01 58.95Q54.10 58.84 54.16 58.75Q54.22 58.67 54.22 58.57L54.22 58.57Q54.22 58.27 54.05 57.97Q53.87 57.67 53.87 57.17L53.87 57.17Q53.87 56.90 53.88 56.64Q53.90 56.38 53.90 56.10L53.90 56.10Q53.90 55.18 53.74 54.58Q53.57 53.98 53.29 53.49Q53.00 52.99 52.61 52.49Q52.23 51.99 51.76 51.29L51.76 51.29Q51.53 51.34 51.29 51.34Q51.06 51.34 50.81 51.34L50.81 51.34Q50.31 51.34 49.83 51.29Q49.34 51.25 48.84 51.25L48.84 51.25Q48.32 51.25 47.78 51.34Q47.25 51.44 46.70 51.44L46.70 51.44Q46.35 51.44 46.00 51.33Q45.65 51.22 45.31 51.22L45.31 51.22Q44.88 51.22 44.46 51.38Q44.04 51.54 43.69 51.83Q43.34 52.12 43.13 52.50Q42.92 52.89 42.92 53.34L42.92 53.34L42.92 54.13Q42.92 56.30 42.54 58.39L42.54 58.39Q42.49 58.72 42.44 59.03Q42.39 59.34 42.39 59.69L42.39 59.69Q42.39 60.71 42.80 61.33Q43.21 61.95 43.81 62.34Q44.41 62.73 45.13 62.97Q45.85 63.22 46.45 63.48Q47.05 63.75 47.46 64.12Q47.87 64.49 47.87 65.14L47.87 65.14Q47.87 65.39 47.78 65.60Q47.70 65.81 47.57 66.01L47.57 66.01Q47.25 66.54 46.96 66.80Q46.68 67.06 46.34 67.21Q46.00 67.36 45.60 67.43Q45.21 67.51 44.66 67.63L44.66 67.63Q44.24 67.73 43.77 67.77Q43.31 67.81 42.87 67.81L42.87 67.81Q42.17 67.81 41.50 67.64Q40.82 67.48 40.13 67.48L40.13 67.48Q39.60 67.48 39.07 67.57Q38.53 67.66 38.01 67.77Q37.49 67.88 36.96 67.97Q36.44 68.05 35.92 68.05L35.92 68.05Q35.57 68.05 35.16 67.98Q34.75 67.90 34.40 67.72Q34.05 67.53 33.81 67.23Q33.58 66.93 33.58 66.51L33.58 66.51Q33.58 66.16 33.75 65.89Q33.93 65.61 34.21 65.41Q34.50 65.22 34.82 65.09Q35.15 64.97 35.44 64.94L35.44 64.94Q35.72 64.92 35.91 64.92Q36.09 64.92 36.23 64.87Q36.37 64.82 36.52 64.72Q36.66 64.62 36.86 64.42L36.86 64.42Q36.99 64.29 37.10 64.22Q37.21 64.14 37.39 64.14L37.39 64.14Q37.51 64.14 37.64 64.17Q37.76 64.19 37.89 64.19L37.89 64.19Q38.08 64.19 38.28 64.07L38.28 64.07Q38.81 63.77 39.03 63.30Q39.25 62.82 39.33 62.26Q39.40 61.70 39.42 61.11Q39.43 60.51 39.55 60.01L39.55 60.01Q39.68 59.46 39.68 58.99L39.68 58.99Q39.68 58.12 39.47 57.27Q39.25 56.42 39.25 55.55L39.25 55.55Q39.25 54.51 39.40 53.46Q39.55 52.42 39.55 51.37L39.55 51.37Q39.55 51.10 39.54 50.85Q39.53 50.60 39.53 50.32L39.53 50.32Q39.53 48.53 39.75 46.79Q39.98 45.04 39.98 43.25L39.98 43.25Q39.98 42.75 39.95 42.28Q39.93 41.81 39.88 41.31L39.88 41.31Q39.83 40.91 39.78 40.33Q39.73 39.74 39.63 39.12Q39.53 38.50 39.37 37.87Q39.20 37.25 38.92 36.76Q38.63 36.28 38.22 35.97Q37.81 35.66 37.24 35.66L37.24 35.66Q37.11 35.66 36.98 35.68Q36.84 35.71 36.71 35.71L36.71 35.71Q36.44 35.71 36.27 35.54Q36.09 35.38 35.99 35.15Q35.89 34.91 35.86 34.64Q35.82 34.36 35.82 34.16L35.82 34.16Q35.82 33.32 36.25 32.92Q36.69 32.52 37.32 32.37Q37.96 32.22 38.69 32.23Q39.43 32.24 40.00 32.19L40.00 32.19Q40.65 32.15 41.28 31.97Q41.92 31.80 42.59 31.80L42.59 31.80Q43.56 31.80 44.51 32.05Q45.46 32.29 46.43 32.29L46.43 32.29Q47.22 32.29 47.97 32.16Q48.72 32.02 49.46 31.77L49.46 31.77Q49.84 31.65 50.14 31.65L50.14 31.65Q51.11 31.65 52.05 31.90Q53.00 32.15 53.95 32.19L53.95 32.19Q54.59 32.24 55.29 32.43Q55.99 32.62 56.60 32.95Q57.21 33.29 57.66 33.81Q58.11 34.34 58.23 35.03L58.23 35.03Q58.30 35.46 58.58 35.84Q58.85 36.23 59.16 36.54Q59.48 36.85 59.71 37.11Q59.95 37.37 59.95 37.55L59.95 37.55Q59.95 37.72 59.79 37.81Q59.62 37.90 59.62 38.10L59.62 38.10Q59.62 38.22 59.79 38.37Q59.95 38.52 60.15 38.72Q60.35 38.92 60.51 39.16Q60.67 39.39 60.67 39.67L60.67 39.67Q60.67 40.04 60.43 40.33Q60.20 40.61 60.20 40.99L60.20 40.99L60.25 41.06L60.60 40.96L60.65 41.01Q60.75 41.41 60.73 41.84Q60.72 42.28 60.72 42.63L60.72 42.63Q60.72 43.10 60.70 43.67Q60.67 44.25 60.57 44.80Q60.47 45.34 60.27 45.82Q60.07 46.29 59.70 46.56L59.70 46.56Q59.48 46.74 59.24 46.82Q59.00 46.91 58.78 47.02Q58.55 47.14 58.38 47.31Q58.21 47.48 58.11 47.78L58.11 47.78Q57.98 48.21 57.68 48.58Q57.38 48.95 57.07 49.32Q56.76 49.68 56.52 50.05Q56.29 50.42 56.29 50.87L56.29 50.87Q56.29 51.59 56.62 52.22Q56.96 52.84 57.23 53.49L57.23 53.49Q57.51 54.16 57.63 54.84Q57.76 55.53 57.82 56.23Q57.88 56.92 57.92 57.62Q57.96 58.32 58.06 59.01L58.06 59.01Q58.11 59.31 58.29 60.00Q58.48 60.68 58.75 61.38Q59.03 62.08 59.38 62.60Q59.72 63.12 60.10 63.12L60.10 63.12Q60.42 63.12 60.62 62.77Q60.82 62.43 61.01 61.98Q61.19 61.53 61.43 61.11Q61.67 60.68 62.07 60.53L62.07 60.53Q62.84 60.61 63.35 60.83Q63.86 61.06 64.13 61.44Q64.41 61.83 64.52 62.39Q64.63 62.95 64.63 63.70ZM57.18 40.79L57.18 40.79Q57.18 40.44 57.03 39.98Q56.89 39.52 56.66 39.04Q56.44 38.57 56.18 38.15Q55.91 37.72 55.67 37.45L55.67 37.45Q55.14 37.45 54.97 37.37Q54.79 37.30 54.74 37.19Q54.69 37.08 54.63 36.93Q54.57 36.78 54.27 36.63L54.27 36.63Q53.40 36.20 52.70 35.98Q52.00 35.76 51.03 35.76L51.03 35.76Q50.76 35.76 50.50 35.91Q50.24 36.05 50.04 36.05L50.04 36.05Q49.46 36.05 48.92 35.92Q48.37 35.78 47.80 35.78L47.80 35.78Q46.97 35.78 46.10 35.98L46.10 35.98Q45.53 36.13 44.96 36.25Q44.38 36.38 43.94 36.63Q43.49 36.88 43.20 37.30Q42.92 37.72 42.92 38.47L42.92 38.47Q42.92 39.24 43.08 39.99Q43.24 40.74 43.24 41.51L43.24 41.51Q43.24 41.88 43.13 42.23Q43.01 42.58 42.89 42.92Q42.77 43.25 42.65 43.60Q42.54 43.95 42.54 44.32L42.54 44.32Q42.54 44.77 42.63 45.23Q42.72 45.69 42.94 46.05Q43.16 46.41 43.53 46.64Q43.89 46.86 44.43 46.86L44.43 46.86Q44.96 46.86 45.43 46.65Q45.90 46.44 46.43 46.44L46.43 46.44Q46.70 46.44 46.95 46.58Q47.20 46.71 47.45 46.86Q47.70 47.01 47.97 47.15Q48.24 47.29 48.57 47.29L48.57 47.29Q48.82 47.29 49.04 47.22Q49.27 47.16 49.46 47.06L49.46 47.06Q50.41 46.64 51.47 46.30Q52.53 45.97 53.57 45.97L53.57 45.97Q53.85 45.97 54.22 45.65Q54.59 45.34 54.99 44.86Q55.39 44.37 55.79 43.79Q56.19 43.20 56.50 42.62Q56.81 42.03 57.00 41.55Q57.18 41.06 57.18 40.79ZM97.10 63.70L97.10 63.70Q97.10 63.92 97.08 64.29Q97.05 64.67 96.83 64.79L96.83 64.79Q96.58 64.92 96.52 65.22Q96.46 65.51 96.46 65.81Q96.46 66.11 96.43 66.35Q96.41 66.58 96.23 66.58L96.23 66.58Q96.11 66.58 96.03 66.52Q95.96 66.46 95.83 66.46L95.83 66.46Q95.71 66.46 95.58 66.58Q95.46 66.71 95.46 66.83L95.46 66.83Q95.46 66.96 95.55 67.02Q95.63 67.08 95.63 67.21L95.63 67.21Q95.63 67.31 95.26 67.44Q94.89 67.58 94.41 67.72Q93.94 67.85 93.49 67.94Q93.04 68.03 92.89 68.03L92.89 68.03Q92.00 68.03 91.10 67.71Q90.20 67.38 89.36 67.11L89.36 67.11Q88.34 66.76 87.85 65.96Q87.37 65.17 87.14 64.17Q86.92 63.17 86.81 62.13Q86.69 61.08 86.39 60.26L86.39 60.26Q86.27 59.89 86.27 59.64L86.27 59.64Q86.27 59.39 86.33 59.23Q86.39 59.06 86.48 58.95Q86.57 58.84 86.63 58.75Q86.69 58.67 86.69 58.57L86.69 58.57Q86.69 58.27 86.52 57.97Q86.34 57.67 86.34 57.17L86.34 57.17Q86.34 56.90 86.36 56.64Q86.37 56.38 86.37 56.10L86.37 56.10Q86.37 55.18 86.21 54.58Q86.05 53.98 85.76 53.49Q85.47 52.99 85.09 52.49Q84.70 51.99 84.23 51.29L84.23 51.29Q84.00 51.34 83.77 51.34Q83.53 51.34 83.28 51.34L83.28 51.34Q82.78 51.34 82.30 51.29Q81.81 51.25 81.31 51.25L81.31 51.25Q80.79 51.25 80.26 51.34Q79.72 51.44 79.17 51.44L79.17 51.44Q78.82 51.44 78.48 51.33Q78.13 51.22 77.78 51.22L77.78 51.22Q77.36 51.22 76.93 51.38Q76.51 51.54 76.16 51.83Q75.81 52.12 75.60 52.50Q75.39 52.89 75.39 53.34L75.39 53.34L75.39 54.13Q75.39 56.30 75.01 58.39L75.01 58.39Q74.96 58.72 74.91 59.03Q74.86 59.34 74.86 59.69L74.86 59.69Q74.86 60.71 75.28 61.33Q75.69 61.95 76.28 62.34Q76.88 62.73 77.60 62.97Q78.33 63.22 78.92 63.48Q79.52 63.75 79.93 64.12Q80.34 64.49 80.34 65.14L80.34 65.14Q80.34 65.39 80.26 65.60Q80.17 65.81 80.04 66.01L80.04 66.01Q79.72 66.54 79.43 66.80Q79.15 67.06 78.81 67.21Q78.48 67.36 78.08 67.43Q77.68 67.51 77.13 67.63L77.13 67.63Q76.71 67.73 76.25 67.77Q75.79 67.81 75.34 67.81L75.34 67.81Q74.64 67.81 73.97 67.64Q73.30 67.48 72.60 67.48L72.60 67.48Q72.08 67.48 71.54 67.57Q71.01 67.66 70.48 67.77Q69.96 67.88 69.44 67.97Q68.91 68.05 68.39 68.05L68.39 68.05Q68.04 68.05 67.63 67.98Q67.22 67.90 66.87 67.72Q66.52 67.53 66.29 67.23Q66.05 66.93 66.05 66.51L66.05 66.51Q66.05 66.16 66.22 65.89Q66.40 65.61 66.68 65.41Q66.97 65.22 67.29 65.09Q67.62 64.97 67.92 64.94L67.92 64.94Q68.19 64.92 68.38 64.92Q68.56 64.92 68.70 64.87Q68.84 64.82 68.99 64.72Q69.14 64.62 69.34 64.42L69.34 64.42Q69.46 64.29 69.57 64.22Q69.69 64.14 69.86 64.14L69.86 64.14Q69.98 64.14 70.11 64.17Q70.23 64.19 70.36 64.19L70.36 64.19Q70.56 64.19 70.76 64.07L70.76 64.07Q71.28 63.77 71.50 63.30Q71.73 62.82 71.80 62.26Q71.88 61.70 71.89 61.11Q71.90 60.51 72.03 60.01L72.03 60.01Q72.15 59.46 72.15 58.99L72.15 58.99Q72.15 58.12 71.94 57.27Q71.73 56.42 71.73 55.55L71.73 55.55Q71.73 54.51 71.88 53.46Q72.03 52.42 72.03 51.37L72.03 51.37Q72.03 51.10 72.01 50.85Q72.00 50.60 72.00 50.32L72.00 50.32Q72.00 48.53 72.23 46.79Q72.45 45.04 72.45 43.25L72.45 43.25Q72.45 42.75 72.42 42.28Q72.40 41.81 72.35 41.31L72.35 41.31Q72.30 40.91 72.25 40.33Q72.20 39.74 72.10 39.12Q72.00 38.50 71.84 37.87Q71.68 37.25 71.39 36.76Q71.10 36.28 70.69 35.97Q70.28 35.66 69.71 35.66L69.71 35.66Q69.59 35.66 69.45 35.68Q69.31 35.71 69.19 35.71L69.19 35.71Q68.91 35.71 68.74 35.54Q68.56 35.38 68.47 35.15Q68.37 34.91 68.33 34.64Q68.29 34.36 68.29 34.16L68.29 34.16Q68.29 33.32 68.73 32.92Q69.16 32.52 69.80 32.37Q70.43 32.22 71.17 32.23Q71.90 32.24 72.47 32.19L72.47 32.19Q73.12 32.15 73.76 31.97Q74.39 31.80 75.06 31.80L75.06 31.80Q76.04 31.80 76.98 32.05Q77.93 32.29 78.90 32.29L78.90 32.29Q79.70 32.29 80.44 32.16Q81.19 32.02 81.94 31.77L81.94 31.77Q82.31 31.65 82.61 31.65L82.61 31.65Q83.58 31.65 84.53 31.90Q85.47 32.15 86.42 32.19L86.42 32.19Q87.07 32.24 87.76 32.43Q88.46 32.62 89.07 32.95Q89.68 33.29 90.13 33.81Q90.58 34.34 90.70 35.03L90.70 35.03Q90.78 35.46 91.05 35.84Q91.33 36.23 91.64 36.54Q91.95 36.85 92.18 37.11Q92.42 37.37 92.42 37.55L92.42 37.55Q92.42 37.72 92.26 37.81Q92.10 37.90 92.10 38.10L92.10 38.10Q92.10 38.22 92.26 38.37Q92.42 38.52 92.62 38.72Q92.82 38.92 92.98 39.16Q93.14 39.39 93.14 39.67L93.14 39.67Q93.14 40.04 92.91 40.33Q92.67 40.61 92.67 40.99L92.67 40.99L92.72 41.06L93.07 40.96L93.12 41.01Q93.22 41.41 93.21 41.84Q93.19 42.28 93.19 42.63L93.19 42.63Q93.19 43.10 93.17 43.67Q93.14 44.25 93.04 44.80Q92.94 45.34 92.74 45.82Q92.55 46.29 92.17 46.56L92.17 46.56Q91.95 46.74 91.71 46.82Q91.47 46.91 91.25 47.02Q91.03 47.14 90.85 47.31Q90.68 47.48 90.58 47.78L90.58 47.78Q90.45 48.21 90.16 48.58Q89.86 48.95 89.54 49.32Q89.23 49.68 89.00 50.05Q88.76 50.42 88.76 50.87L88.76 50.87Q88.76 51.59 89.10 52.22Q89.43 52.84 89.71 53.49L89.71 53.49Q89.98 54.16 90.11 54.84Q90.23 55.53 90.29 56.23Q90.35 56.92 90.39 57.62Q90.43 58.32 90.53 59.01L90.53 59.01Q90.58 59.31 90.77 60.00Q90.95 60.68 91.23 61.38Q91.50 62.08 91.85 62.60Q92.20 63.12 92.57 63.12L92.57 63.12Q92.89 63.12 93.09 62.77Q93.29 62.43 93.48 61.98Q93.67 61.53 93.90 61.11Q94.14 60.68 94.54 60.53L94.54 60.53Q95.31 60.61 95.82 60.83Q96.33 61.06 96.60 61.44Q96.88 61.83 96.99 62.39Q97.10 62.95 97.10 63.70ZM89.66 40.79L89.66 40.79Q89.66 40.44 89.51 39.98Q89.36 39.52 89.13 39.04Q88.91 38.57 88.65 38.15Q88.39 37.72 88.14 37.45L88.14 37.45Q87.61 37.45 87.44 37.37Q87.27 37.30 87.22 37.19Q87.17 37.08 87.10 36.93Q87.04 36.78 86.74 36.63L86.74 36.63Q85.87 36.20 85.17 35.98Q84.48 35.76 83.51 35.76L83.51 35.76Q83.23 35.76 82.97 35.91Q82.71 36.05 82.51 36.05L82.51 36.05Q81.94 36.05 81.39 35.92Q80.84 35.78 80.27 35.78L80.27 35.78Q79.45 35.78 78.58 35.98L78.58 35.98Q78.00 36.13 77.43 36.25Q76.86 36.38 76.41 36.63Q75.96 36.88 75.67 37.30Q75.39 37.72 75.39 38.47L75.39 38.47Q75.39 39.24 75.55 39.99Q75.71 40.74 75.71 41.51L75.71 41.51Q75.71 41.88 75.60 42.23Q75.49 42.58 75.36 42.92Q75.24 43.25 75.13 43.60Q75.01 43.95 75.01 44.32L75.01 44.32Q75.01 44.77 75.10 45.23Q75.19 45.69 75.41 46.05Q75.64 46.41 76.00 46.64Q76.36 46.86 76.91 46.86L76.91 46.86Q77.43 46.86 77.90 46.65Q78.38 46.44 78.90 46.44L78.90 46.44Q79.17 46.44 79.42 46.58Q79.67 46.71 79.92 46.86Q80.17 47.01 80.44 47.15Q80.72 47.29 81.04 47.29L81.04 47.29Q81.29 47.29 81.51 47.22Q81.74 47.16 81.94 47.06L81.94 47.06Q82.88 46.64 83.94 46.30Q85.00 45.97 86.05 45.97L86.05 45.97Q86.32 45.97 86.69 45.65Q87.07 45.34 87.47 44.86Q87.86 44.37 88.26 43.79Q88.66 43.20 88.97 42.62Q89.28 42.03 89.47 41.55Q89.66 41.06 89.66 40.79Z" fill="#fff"></path></svg>